<?xml version='1.0' encoding='UTF-8' standalone='no'?>
<!-- Created with Fritzing (http://www.fritzing.org/) -->
<svg xmlns:svg='http://www.w3.org/2000/svg' xmlns='http://www.w3.org/2000/svg' version='1.2' baseProfile='tiny' x='0in' y='0in' width='8.70564in' height='3.89004in' viewBox='0 0 626.806 280.083' >
<g partID='60040'><g transform='translate(0,64.5593)' ><g id="schematic">
<rect stroke="#000000" stroke-linecap="round" x="14.85" y="14.85" width="78.3" height="150.3" fill="#FFFFFF" stroke-width="0.3175"/>
<line stroke="#787878" stroke-linecap="round" y2="28.8" id="connector61pin" y1="28.8" fill="none" stroke-width="0.2469" x1="93.25" x2="107.65"/>
<g transform="matrix(1, 0, 0, 1, 82.2441, 29.5)">
<text font-family="'DroidSans'" fill="#8C8C8C" font-size="3.5">D0/RX</text>
</g>
<g x="107.65" y="28.45" id="connector61terminal" width="0.699" height="0.7" fill="none"/>
<line stroke="#787878" stroke-linecap="round" y2="36" id="connector62pin" y1="36" fill="none" stroke-width="0.2469" x1="93.25" x2="107.65"/>
<g transform="matrix(1, 0, 0, 1, 82.4922, 36.6992)">
<text font-family="'DroidSans'" fill="#8C8C8C" font-size="3.5">D1/TX</text>
</g>
<g x="107.65" y="35.65" id="connector62terminal" width="0.699" height="0.7" fill="none"/>
<line stroke="#787878" stroke-linecap="round" y2="43.2" id="connector63pin" y1="43.2" fill="none" stroke-width="0.2469" x1="93.25" x2="107.65"/>
<g transform="matrix(1, 0, 0, 1, 87.5273, 43.9004)">
<text font-family="'DroidSans'" fill="#8C8C8C" font-size="3.5">D2</text>
</g>
<g x="107.65" y="42.85" id="connector63terminal" width="0.699" height="0.7" fill="none"/>
<line stroke="#787878" stroke-linecap="round" y2="50.4" id="connector64pin" y1="50.4" fill="none" stroke-width="0.2469" x1="93.25" x2="107.65"/>
<g transform="matrix(1, 0, 0, 1, 78.4629, 51.0996)">
<text font-family="'DroidSans'" fill="#8C8C8C" font-size="3.5">D3 PWM</text>
</g>
<g x="107.65" y="50.05" id="connector64terminal" width="0.699" height="0.7" fill="none"/>
<line stroke="#787878" stroke-linecap="round" y2="57.6" id="connector65pin" y1="57.6" fill="none" stroke-width="0.2469" x1="93.25" x2="107.65"/>
<g transform="matrix(1, 0, 0, 1, 87.5273, 58.3008)">
<text font-family="'DroidSans'" fill="#8C8C8C" font-size="3.5">D4</text>
</g>
<g x="107.65" y="57.25" id="connector65terminal" width="0.699" height="0.7" fill="none"/>
<line stroke="#787878" stroke-linecap="round" y2="64.8" id="connector66pin" y1="64.8" fill="none" stroke-width="0.2469" x1="93.25" x2="107.65"/>
<g transform="matrix(1, 0, 0, 1, 78.4629, 65.5)">
<text font-family="'DroidSans'" fill="#8C8C8C" font-size="3.5">D5 PWM</text>
</g>
<g x="107.65" y="64.45" id="connector66terminal" width="0.699" height="0.7" fill="none"/>
<line stroke="#787878" stroke-linecap="round" y2="72" id="connector67pin" y1="72" fill="none" stroke-width="0.2469" x1="93.25" x2="107.65"/>
<g transform="matrix(1, 0, 0, 1, 78.4629, 72.6992)">
<text font-family="'DroidSans'" fill="#8C8C8C" font-size="3.5">D6 PWM</text>
</g>
<g x="107.65" y="71.65" id="connector67terminal" width="0.699" height="0.7" fill="none"/>
<line stroke="#787878" stroke-linecap="round" y2="79.2" id="connector68pin" y1="79.2" fill="none" stroke-width="0.2469" x1="93.25" x2="107.65"/>
<g transform="matrix(1, 0, 0, 1, 87.5273, 79.9004)">
<text font-family="'DroidSans'" fill="#8C8C8C" font-size="3.5">D7</text>
</g>
<g x="107.65" y="78.85" id="connector68terminal" width="0.699" height="0.7" fill="none"/>
<line stroke="#787878" stroke-linecap="round" y2="86.4" id="connector51pin" y1="86.4" fill="none" stroke-width="0.2469" x1="93.25" x2="107.65"/>
<g transform="matrix(1, 0, 0, 1, 87.5273, 87.0996)">
<text font-family="'DroidSans'" fill="#8C8C8C" font-size="3.5">D8</text>
</g>
<g x="107.65" y="86.05" id="connector51terminal" width="0.699" height="0.7" fill="none"/>
<line stroke="#787878" stroke-linecap="round" y2="93.6" id="connector52pin" y1="93.6" fill="none" stroke-width="0.2469" x1="93.25" x2="107.65"/>
<g transform="matrix(1, 0, 0, 1, 78.4629, 94.3008)">
<text font-family="'DroidSans'" fill="#8C8C8C" font-size="3.5">D9 PWM</text>
</g>
<g x="107.65" y="93.25" id="connector52terminal" width="0.699" height="0.699" fill="none"/>
<line stroke="#787878" stroke-linecap="round" y2="100.8" id="connector53pin" y1="100.8" fill="none" stroke-width="0.2469" x1="93.25" x2="107.65"/>
<g transform="matrix(1, 0, 0, 1, 71.5977, 101.5)">
<text font-family="'DroidSans'" fill="#8C8C8C" font-size="3.5">D10 PWM/SS</text>
</g>
<g x="107.65" y="100.449" id="connector53terminal" width="0.699" height="0.701" fill="none"/>
<line stroke="#787878" stroke-linecap="round" y2="108" id="connector54pin" y1="108" fill="none" stroke-width="0.2469" x1="93.25" x2="107.65"/>
<g transform="matrix(1, 0, 0, 1, 66.584, 108.699)">
<text font-family="'DroidSans'" fill="#8C8C8C" font-size="3.5">D11 PWM/MOSI</text>
</g>
<g x="107.65" y="107.65" id="connector54terminal" width="0.699" height="0.699" fill="none"/>
<line stroke="#787878" stroke-linecap="round" y2="115.2" id="connector55pin" y1="115.2" fill="none" stroke-width="0.2469" x1="93.25" x2="107.65"/>
<g transform="matrix(1, 0, 0, 1, 75.6484, 115.9)">
<text font-family="'DroidSans'" fill="#8C8C8C" font-size="3.5">D12/MISO</text>
</g>
<g x="107.65" y="114.85" id="connector55terminal" width="0.699" height="0.7" fill="none"/>
<line y2="122.4" id="connector41pin" y1="122.4" fill="none" x1="93.25" x2="107.65"/>
<rect x="107.65" y="122.05" id="connector41terminal" width="0.699" height="0.7" fill="none"/>
<line stroke="#787878" stroke-linecap="round" y2="122.4" id="connector56pin" y1="122.4" fill="none" stroke-width="0.2469" x1="93.25" x2="107.65"/>
<g transform="matrix(1, 0, 0, 1, 78.3398, 123.1)">
<text font-family="'DroidSans'" fill="#8C8C8C" font-size="3.5">D13/SCK</text>
</g>
<g x="107.65" y="122.05" id="connector56terminal" width="0.699" height="0.7" fill="none"/>
<line stroke="#787878" stroke-linecap="round" y2="136.8" id="connector45pin" y1="136.8" fill="none" stroke-width="0.2469" x1="93.25" x2="107.65"/>
<g transform="matrix(1, 0, 0, 1, 73.2715, 137.5)">
<text font-family="'DroidSans'" fill="#8C8C8C" font-size="3.5">ICSP2 MISO</text>
</g>
<g x="107.65" y="136.45" id="connector45terminal" width="0.699" height="0.7" fill="none"/>
<line stroke="#787878" stroke-linecap="round" y2="144" id="connector47pin" y1="144" fill="none" stroke-width="0.2469" x1="93.25" x2="107.65"/>
<g transform="matrix(1, 0, 0, 1, 75.9629, 144.699)">
<text font-family="'DroidSans'" fill="#8C8C8C" font-size="3.5">ICSP2 SCK</text>
</g>
<g x="107.65" y="143.65" id="connector47terminal" width="0.699" height="0.699" fill="none"/>
<line stroke="#787878" stroke-linecap="round" y2="151.2" id="connector48pin" y1="151.2" fill="none" stroke-width="0.2469" x1="93.25" x2="107.65"/>
<g transform="matrix(1, 0, 0, 1, 73.2715, 151.9)">
<text font-family="'DroidSans'" fill="#8C8C8C" font-size="3.5">ICSP2 MOSI</text>
</g>
<g x="107.65" y="150.85" id="connector48terminal" width="0.699" height="0.7" fill="none"/>
<line y2="28.8" id="connector43pin" y1="28.8" fill="none" x1="0.35" x2="14.75"/>
<g x="-0.35" y="28.45" id="connector43terminal" width="0.7" height="0.7" fill="none"/>
<line stroke="#787878" stroke-linecap="round" y2="28.8" id="connector85pin" y1="28.8" fill="none" stroke-width="0.2469" x1="0.35" x2="14.75"/>
<g transform="matrix(1, 0, 0, 1, 16.1504, 29.5)">
<text font-family="'DroidSans'" fill="#8C8C8C" font-size="3.5">RESET</text>
</g>
<g x="-0.35" y="28.45" id="connector85terminal" width="0.7" height="0.7" fill="none"/>
<line stroke="#787878" stroke-linecap="round" y2="36" id="connector49pin" y1="36" fill="none" stroke-width="0.2469" x1="0.35" x2="14.75"/>
<g transform="matrix(1, 0, 0, 1, 16.1504, 36.6992)">
<text font-family="'DroidSans'" fill="#8C8C8C" font-size="3.5">RESET2</text>
</g>
<g x="-0.35" y="35.65" id="connector49terminal" width="0.7" height="0.7" fill="none"/>
<line stroke="#787878" stroke-linecap="round" y2="43.2" id="connector58pin" y1="43.2" fill="none" stroke-width="0.2469" x1="0.35" x2="14.75"/>
<g transform="matrix(1, 0, 0, 1, 16.1504, 43.9004)">
<text font-family="'DroidSans'" fill="#8C8C8C" font-size="3.5">AREF</text>
</g>
<g x="-0.35" y="42.85" id="connector58terminal" width="0.7" height="0.7" fill="none"/>
<line stroke="#787878" stroke-linecap="round" y2="50.4" id="connector84pin" y1="50.4" fill="none" stroke-width="0.2469" x1="0.35" x2="14.75"/>
<g transform="matrix(1, 0, 0, 1, 16.1504, 51.0996)">
<text font-family="'DroidSans'" fill="#8C8C8C" font-size="3.5">IOREF</text>
</g>
<g x="-0.35" y="50.05" id="connector84terminal" width="0.7" height="0.7" fill="none"/>
<line stroke="#787878" stroke-linecap="round" y2="64.8" id="connector0pin" y1="64.8" fill="none" stroke-width="0.2469" x1="0.35" x2="14.75"/>
<g transform="matrix(1, 0, 0, 1, 16.1504, 65.5)">
<text font-family="'DroidSans'" fill="#8C8C8C" font-size="3.5">A0</text>
</g>
<g x="-0.35" y="64.45" id="connector0terminal" width="0.7" height="0.7" fill="none"/>
<line stroke="#787878" stroke-linecap="round" y2="72" id="connector1pin" y1="72" fill="none" stroke-width="0.2469" x1="0.35" x2="14.75"/>
<g transform="matrix(1, 0, 0, 1, 16.1504, 72.6992)">
<text font-family="'DroidSans'" fill="#8C8C8C" font-size="3.5">A1</text>
</g>
<g x="-0.35" y="71.65" id="connector1terminal" width="0.7" height="0.7" fill="none"/>
<line stroke="#787878" stroke-linecap="round" y2="79.2" id="connector2pin" y1="79.2" fill="none" stroke-width="0.2469" x1="0.35" x2="14.75"/>
<g transform="matrix(1, 0, 0, 1, 16.1504, 79.9004)">
<text font-family="'DroidSans'" fill="#8C8C8C" font-size="3.5">A2</text>
</g>
<g x="-0.35" y="78.85" id="connector2terminal" width="0.7" height="0.7" fill="none"/>
<line stroke="#787878" stroke-linecap="round" y2="86.4" id="connector3pin" y1="86.4" fill="none" stroke-width="0.2469" x1="0.35" x2="14.75"/>
<g transform="matrix(1, 0, 0, 1, 16.1504, 87.0996)">
<text font-family="'DroidSans'" fill="#8C8C8C" font-size="3.5">A3</text>
</g>
<g x="-0.35" y="86.05" id="connector3terminal" width="0.7" height="0.7" fill="none"/>
<line y2="93.6" id="connector39pin" y1="93.6" fill="none" x1="0.35" x2="14.75"/>
<g x="-0.35" y="93.25" id="connector39terminal" width="0.7" height="0.699" fill="none"/>
<line stroke="#787878" stroke-linecap="round" y2="108" id="connector42pin" y1="108" fill="none" stroke-width="0.2469" x1="107.65" x2="93.251"/>
<g x="107.65" y="107.65" id="connector42terminal" width="0.701" height="0.699" fill="none"/>
<line y2="93.6" id="connector4pin" y1="93.6" fill="none" x1="0.35" x2="14.75"/>
<g x="-0.35" y="93.25" id="connector4terminal" width="0.7" height="0.699" fill="none"/>
<line stroke="#787878" stroke-linecap="round" y2="93.6" id="connector59pin" y1="93.6" fill="none" stroke-width="0.2469" x1="0.35" x2="14.75"/>
<g transform="matrix(1, 0, 0, 1, 16.1504, 94.3008)">
<text font-family="'DroidSans'" fill="#8C8C8C" font-size="3.5">A4/SDA</text>
</g>
<g x="-0.35" y="93.25" id="connector59terminal" width="0.7" height="0.699" fill="none"/>
<line y2="100.8" id="connector5pin" y1="100.8" fill="none" x1="0.35" x2="14.75"/>
<g x="-0.35" y="100.449" id="connector5terminal" width="0.7" height="0.701" fill="none"/>
<line stroke="#787878" stroke-linecap="round" y2="100.8" id="connector60pin" y1="100.8" fill="none" stroke-width="0.2469" x1="0.35" x2="14.75"/>
<g transform="matrix(1, 0, 0, 1, 16.1504, 101.5)">
<text font-family="'DroidSans'" fill="#8C8C8C" font-size="3.5">A5/SCL</text>
</g>
<g x="-0.35" y="100.449" id="connector60terminal" width="0.7" height="0.701" fill="none"/>
<line stroke="#787878" stroke-linecap="round" y2="136.8" id="connector91pin" y1="136.8" fill="none" stroke-width="0.2469" x1="0.35" x2="14.75"/>
<g transform="matrix(1, 0, 0, 1, 16.1504, 137.5)">
<text font-family="'DroidSans'" fill="#8C8C8C" font-size="3.5">N/C</text>
</g>
<g x="-0.35" y="136.45" id="connector91terminal" width="0.7" height="0.7" fill="none"/>
<line y2="179.65" id="connector88pin" y1="165.25" fill="none" x1="57.6" x2="57.6"/>
<g x="57.25" y="179.65" id="connector88terminal" width="0.699" height="0.699" fill="none"/>
<line y2="179.65" id="connector57pin" y1="165.25" fill="none" x1="57.6" x2="57.6"/>
<g x="57.25" y="179.65" id="connector57terminal" width="0.699" height="0.699" fill="none"/>
<line y2="179.65" id="connector44pin" y1="165.25" fill="none" x1="57.6" x2="57.6"/>
<g x="57.25" y="179.65" id="connector44terminal" width="0.699" height="0.699" fill="none"/>
<line y2="179.65" id="connector50pin" y1="165.25" fill="none" x1="57.6" x2="57.6"/>
<g x="57.25" y="179.65" id="connector50terminal" width="0.699" height="0.699" fill="none"/>
<line stroke="#787878" stroke-linecap="round" y2="179.65" id="connector89pin" y1="165.25" fill="none" stroke-width="0.2469" x1="57.6" x2="57.6"/>
<g transform="matrix(1, 0, 0, 1, 20.5669, 57.8026)">
<g>
<g transform="rotate(270)">
<g>
<g transform="matrix(1, 0, 0, 1, -106.047, 37.7339)">
<text font-family="'DroidSans'" fill="#8C8C8C" font-size="3.5">GND</text>
</g>
</g>
</g>
</g>
</g>
<g x="57.25" y="179.65" id="connector89terminal" width="0.699" height="0.699" fill="none"/>
<line stroke="#787878" stroke-linecap="round" y2="14.75" id="connector86pin" y1="0.35" fill="none" stroke-width="0.2469" x1="36" x2="36"/>
<g transform="matrix(1, 0, 0, 1, 12.9469, 5.69736)">
<g>
<g transform="rotate(270)">
<g>
<g transform="matrix(1, 0, 0, 1, -16.2948, 23.7523)">
<text font-family="'DroidSans'" fill="#8C8C8C" font-size="3.5">3V3</text>
</g>
</g>
</g>
</g>
</g>
<g x="35.65" y="-0.35" id="connector86terminal" width="0.7" height="0.7" fill="none"/>
<line y2="14.75" id="connector40pin" y1="0.35" fill="none" x1="50.4" x2="50.4"/>
<g x="50.05" y="-0.35" id="connector40terminal" width="0.7" height="0.7" fill="none"/>
<line y2="14.75" id="connector46pin" y1="0.35" fill="none" x1="50.4" x2="50.4"/>
<g x="50.05" y="-0.35" id="connector46terminal" width="0.7" height="0.7" fill="none"/>
<line stroke="#787878" stroke-linecap="round" y2="14.75" id="connector87pin" y1="0.35" fill="none" stroke-width="0.2469" x1="50.4" x2="50.4"/>
<g transform="matrix(1, 0, 0, 1, 18.0269, 5.69736)">
<g>
<g transform="rotate(270)">
<g>
<g transform="matrix(1, 0, 0, 1, -14.3671, 33.0727)">
<text font-family="'DroidSans'" fill="#8C8C8C" font-size="3.5">5V</text>
</g>
</g>
</g>
</g>
</g>
<g x="50.05" y="-0.35" id="connector87terminal" width="0.7" height="0.7" fill="none"/>
<line stroke="#787878" stroke-linecap="round" y2="14.75" id="connector90pin" y1="0.35" fill="none" stroke-width="0.2469" x1="64.8" x2="64.8"/>
<g transform="matrix(1, 0, 0, 1, 23.1069, 5.69736)">
<g>
<g transform="rotate(270)">
<g>
<g transform="matrix(1, 0, 0, 1, -16.1776, 42.3931)">
<text font-family="'DroidSans'" fill="#8C8C8C" font-size="3.5">VIN</text>
</g>
</g>
</g>
</g>
</g>
<g x="64.449" y="-0.35" id="connector90terminal" width="0.701" height="0.7" fill="none"/>
<g transform="matrix(1, 0, 0, 1, 46.7871, 81.3828)">
<text font-family="'DroidSans'" id="label" font-size="4.25">Arduino</text>
</g>
<g transform="matrix(1, 0, 0, 1, 50.4883, 85.916)">
<text font-family="'DroidSans'" id="label_1_" font-size="4.25">Uno</text>
</g>
<g transform="matrix(1, 0, 0, 1, 48.5938, 90.4492)">
<text font-family="'DroidSans'" id="label_2_" font-size="4.25">(Rev3)</text>
</g>
<g transform="matrix(1, 0, 0, 1, 50.1426, 94.9844)">
<text font-family="'DroidSans'" id="label_3_" font-size="4.25">ICSP</text>
</g>
</g>
</g></g><g partID='62220'><g transform='translate(136.45,185.653)' ><g id="schematic" xmlns="http://www.w3.org/2000/svg">
<line stroke="#000000" stroke-linecap="round" y2="4.9062" class="other" y1="8.50619" stroke-width="0.72" xmlns="http://www.w3.org/2000/svg" x1="7.54999" x2="14.75"/>
<line stroke="#000000" stroke-linecap="round" y2="15.7062" class="other" y1="15.7062" stroke-width="0.36" xmlns="http://www.w3.org/2000/svg" x1="14.75" x2="16.55"/>
<line stroke="#000000" stroke-linecap="round" y2="1.3062" class="other" y1="1.3062" stroke-width="0.432" xmlns="http://www.w3.org/2000/svg" x1="14.75" x2="16.55"/>
<circle stroke="#000000" cx="14.75" class="other" cy="1.3062" fill="none" stroke-width="0.576" xmlns="http://www.w3.org/2000/svg" r="1.0182"/>
<circle stroke="#000000" cx="14.75" class="other" cy="15.7062" fill="none" stroke-width="0.576" xmlns="http://www.w3.org/2000/svg" r="1.0182"/>
<circle stroke="#000000" cx="7.54999" class="other" cy="8.50619" fill="none" stroke-width="0.576" xmlns="http://www.w3.org/2000/svg" r="1.0182"/>
<line stroke="#787878" stroke-linecap="round" y2="8.50619" connectorname="P" class="pin" id="connector1pin" y1="8.50619" stroke-width="0.699999" xmlns="http://www.w3.org/2000/svg" x1="0.349999" x2="7.54999"/>
<g stroke="none" x="0.349999" y="8.50619" class="terminal" id="connector1terminal" width="0.000283465" height="0.000283464" fill="none" stroke-width="0" xmlns="http://www.w3.org/2000/svg"/>
<text stroke="none" x="3.94999" font-family="'Droid Sans'" y="7.45618" class="text" fill="#8c8c8c" text-anchor="middle" stroke-width="0" font-size="2.5" xmlns="http://www.w3.org/2000/svg">2</text>
<line stroke="#787878" stroke-linecap="round" y2="15.7062" connectorname="S" class="pin" id="connector2pin" y1="15.7062" stroke-width="0.699999" xmlns="http://www.w3.org/2000/svg" x1="21.95" x2="14.75"/>
<g stroke="none" x="21.95" y="15.7062" class="terminal" id="connector2terminal" width="0.000283465" height="0.000283464" fill="none" stroke-width="0" xmlns="http://www.w3.org/2000/svg"/>
<text stroke="none" x="18.35" font-family="'Droid Sans'" y="14.6562" class="text" fill="#8c8c8c" text-anchor="middle" stroke-width="0" font-size="2.5" xmlns="http://www.w3.org/2000/svg">3</text>
<line stroke="#787878" stroke-linecap="round" y2="1.3062" connectorname="O" class="pin" id="connector0pin" y1="1.3062" stroke-width="0.699999" xmlns="http://www.w3.org/2000/svg" x1="21.95" x2="14.75"/>
<g stroke="none" x="21.95" y="1.3062" class="terminal" id="connector0terminal" width="0.000283465" height="0.000283464" fill="none" stroke-width="0" xmlns="http://www.w3.org/2000/svg"/>
<text stroke="none" x="18.35" font-family="'Droid Sans'" y="0.256206" class="text" fill="#8c8c8c" text-anchor="middle" stroke-width="0" font-size="2.5" xmlns="http://www.w3.org/2000/svg">1</text>
</g>
</g></g><g partID='63190'><g transform='translate(50.3995,265.683)' ><g id="schematic" xmlns="http://www.w3.org/2000/svg">
<path stroke="#787878" stroke-linecap="round" id="connector0pin" fill="none" stroke-width="0.75" xmlns="http://www.w3.org/2000/svg" d="M7.201,7.575l0,-7.2"/>
<g x="6.728" y="0" id="connector0terminal" width="0.945" height="0.953" fill="none" xmlns="http://www.w3.org/2000/svg"/>
<path stroke="#000000" stroke-linecap="round" id="path4098" fill="none" stroke-width="0.9" xmlns="http://www.w3.org/2000/svg" d="M0.5,7.711L13.9,7.711"/>
<path stroke="#000000" stroke-linecap="round" id="path4100" fill="none" stroke-width="0.9" xmlns="http://www.w3.org/2000/svg" d="M2.732,10.456l8.935,0"/>
<path stroke="#000000" stroke-linecap="round" id="path4102" fill="none" stroke-width="0.9" xmlns="http://www.w3.org/2000/svg" d="M9.431,13.175L4.967,13.175"/>
</g>
</g></g><g partID='63250'><g transform='translate(151.199,229.683)' ><g id="schematic" xmlns="http://www.w3.org/2000/svg">
<path stroke="#787878" stroke-linecap="round" id="connector0pin" fill="none" stroke-width="0.75" xmlns="http://www.w3.org/2000/svg" d="M7.201,7.575l0,-7.2"/>
<g x="6.728" y="0" id="connector0terminal" width="0.945" height="0.953" fill="none" xmlns="http://www.w3.org/2000/svg"/>
<path stroke="#000000" stroke-linecap="round" id="path4098" fill="none" stroke-width="0.9" xmlns="http://www.w3.org/2000/svg" d="M0.5,7.711L13.9,7.711"/>
<path stroke="#000000" stroke-linecap="round" id="path4100" fill="none" stroke-width="0.9" xmlns="http://www.w3.org/2000/svg" d="M2.732,10.456l8.935,0"/>
<path stroke="#000000" stroke-linecap="round" id="path4102" fill="none" stroke-width="0.9" xmlns="http://www.w3.org/2000/svg" d="M9.431,13.175L4.967,13.175"/>
</g>
</g></g><g partID='72290'><g transform='translate(388.88,5.6)' ><g  id="schematic">
 <defs  id="defs4">
  <linearGradient  id="linearGradient6581">
   <stop  style="stop-color:#000000;stop-opacity:1;" id="stop6583" offset="0"/>
   <stop  style="stop-color:#000000;stop-opacity:0;" id="stop6585" offset="1"/>
  </linearGradient>
  <linearGradient  id="linearGradient5086">
   <stop  style="stop-color:#000000;stop-opacity:1;" id="stop5088" offset="0"/>
   <stop  style="stop-color:#000000;stop-opacity:0;" id="stop5090" offset="1"/>
  </linearGradient>
  <linearGradient  id="linearGradient4561">
   <stop  style="stop-color:#333333;stop-opacity:1;" id="stop4563" offset="0"/>
   <stop  style="stop-color:#333333;stop-opacity:0;" id="stop4565" offset="1"/>
  </linearGradient>
  <linearGradient  href="#linearGradient4561" gradientUnits="userSpaceOnUse" y2="175.672" id="linearGradient4764" y1="14.5134" gradientTransform="translate(-0.49089974,798.25114)" x1="142.715" x2="11.7921"/>
  <linearGradient  href="#linearGradient4561" gradientUnits="userSpaceOnUse" y2="152.63" id="linearGradient5072" y1="173.404" gradientTransform="translate(-0.49089974,798.25114)" x1="10.9619" x2="22.9889"/>
  <radialGradient  href="#linearGradient5086" gradientUnits="userSpaceOnUse" cx="98.6136" fx="98.6136" id="radialGradient5078" cy="782.68" fy="782.68" gradientTransform="matrix(-0.00526743,0.26861869,-1.321133,-0.02590814,1384.2937,896.53841)" r="69.1954"/>
  <linearGradient  href="#linearGradient6581" gradientUnits="userSpaceOnUse" y2="671.055" id="linearGradient6587" y1="784.139" x1="23.2819" x2="120.643"/>
 </defs>
 <metadata  id="metadata7">
  <rdf:RDF xmlns:rdf="http://www.w3.org/1999/02/22-rdf-syntax-ns#">
   <cc:Work xmlns:cc="http://creativecommons.org/ns#" rdf:about="" xmlns:rdf="http://www.w3.org/1999/02/22-rdf-syntax-ns#">
    <dc:format xmlns:dc="http://purl.org/dc/elements/1.1/">image/svg+xml</dc:format>
    <dc:type xmlns:dc="http://purl.org/dc/elements/1.1/" rdf:resource="http://purl.org/dc/dcmitype/StillImage" xmlns:rdf="http://www.w3.org/1999/02/22-rdf-syntax-ns#"/>
    <dc:title xmlns:dc="http://purl.org/dc/elements/1.1/"/>
   </cc:Work>
  </rdf:RDF>
 </metadata>
 <g  id="g5478">
  <g  id="g5461">
   <rect  stroke="#000000" style="stroke-linejoin:round;stroke-miterlimit:4;stroke-dasharray:none" x="0.325652" y="0.34165" width="170.079" id="rect3134" height="191.339" fill="#ffffff" stroke-opacity="1" stroke-width="2.4" fill-opacity="1"/>
   <path  stroke="#000000" style="stroke-linecap:butt;stroke-linejoin:miter;stroke-miterlimit:4;stroke-dasharray:none" id="path3136" fill="none" stroke-opacity="1" stroke-width="2" d="m21.224,191.68,0,21.2598,0,0"/>
   <path  stroke="#000000" style="stroke-linecap:butt;stroke-linejoin:miter;stroke-miterlimit:4;stroke-dasharray:none" id="path3136-1" fill="none" stroke-opacity="1" stroke-width="2" d="m42.4796,191.68,0,21.2598,0,0"/>
   <path  stroke="#000000" style="stroke-linecap:butt;stroke-linejoin:miter;stroke-miterlimit:4;stroke-dasharray:none" id="path3136-7" fill="none" stroke-opacity="1" stroke-width="2" d="m63.8814,191.68,0,21.2598,0,0"/>
   <path  stroke="#000000" style="stroke-linecap:butt;stroke-linejoin:miter;stroke-miterlimit:4;stroke-dasharray:none" id="path3136-4" fill="none" stroke-opacity="1" stroke-width="2" d="m84.9727,191.68,0,21.2598,0,0"/>
   <path  stroke="#000000" style="stroke-linecap:butt;stroke-linejoin:miter;stroke-miterlimit:4;stroke-dasharray:none" id="path3136-0" fill="none" stroke-opacity="1" stroke-width="2" d="m106.324,191.68,0,21.2598,0,0"/>
   <path  stroke="#000000" style="stroke-linecap:butt;stroke-linejoin:miter;stroke-miterlimit:4;stroke-dasharray:none" id="path3136-9" fill="none" stroke-opacity="1" stroke-width="2" d="m127.589,191.68,0,21.2598,0,0"/>
   <path  stroke="#000000" style="stroke-linecap:butt;stroke-linejoin:miter;stroke-miterlimit:4;stroke-dasharray:none" id="path3136-48" fill="none" stroke-opacity="1" stroke-width="2" d="m148.941,191.68,0,21.2598,0,0"/>
   <rect  stroke="#000000" style="stroke-linejoin:round;stroke-miterlimit:4;stroke-dasharray:none" x="21.7606" y="21.5132" width="127.209" id="rect3302" height="127.209" fill="#ffffff" stroke-opacity="1" stroke-width="1.2" fill-opacity="1"/>
   <rect  stroke="#000000" style="stroke-linejoin:round;stroke-miterlimit:4;stroke-dasharray:none" x="37.1287" y="91.4012" width="41.9528" id="rect3308" height="45.0706" fill="#ffffff" stroke-opacity="1" stroke-width="0.567168" fill-opacity="1"/>
   <rect  stroke="#000000" style="stroke-linejoin:round;stroke-miterlimit:4;stroke-dasharray:none" x="37.1287" y="33.7634" width="41.9528" id="rect3308-1" height="45.0706" fill="#ffffff" stroke-opacity="1" stroke-width="0.567168" fill-opacity="1"/>
   <rect  stroke="#000000" style="stroke-linejoin:round;stroke-miterlimit:4;stroke-dasharray:none" x="91.6486" y="33.7634" width="41.9528" id="rect3308-4" height="45.0706" fill="#ffffff" stroke-opacity="1" stroke-width="0.567168" fill-opacity="1"/>
   <rect  stroke="#000000" style="stroke-linejoin:round;stroke-miterlimit:4;stroke-dasharray:none" x="91.6486" y="91.4012" width="41.9528" id="rect3308-2" height="45.0706" fill="#ffffff" stroke-opacity="1" stroke-width="0.567168" fill-opacity="1"/>
   <g  stroke="none" style="font-style:normal;font-variant:normal;font-weight:normal;font-stretch:normal;line-height:125%;letter-spacing:0px;word-spacing:0px;font-family:Droid Sans;-inkscape-font-specification:Droid Sans" id="text3191" xml:space="preserve" xmlns:xml="http://www.w3.org/XML/1998/namespace" fill="#000000" font-size="0" fill-opacity="1">
    <text  x="59.8873" y="17.3318" id="tspan3193">KEYPAD</text>
   </g>
  </g>
 </g>
 <g transform="matrix(1, 0, 0, 1, 0.719211, 0)">
  <g  id="g5445">
   <g transform="matrix(0.0038448,0.99999261,-0.99999261,0.0038448,0,0)">
    <g  stroke="none" style="font-style:normal;font-variant:normal;font-weight:normal;font-stretch:normal;line-height:125%;letter-spacing:0px;word-spacing:0px;font-family:Droid Sans;-inkscape-font-specification:Droid Sans" id="text3199" xml:space="preserve" xmlns:xml="http://www.w3.org/XML/1998/namespace" fill="#000000" font-size="0" fill-opacity="1">
     <text  x="176.359" y="-17.5266" id="tspan3201">col</text>
    </g>
   </g>
   <g transform="matrix(0.0038448,0.99999261,-0.99999261,0.0038448,0,0)">
    <g  stroke="none" style="font-style:normal;font-variant:normal;font-weight:normal;font-stretch:normal;line-height:125%;letter-spacing:0px;word-spacing:0px;font-family:Droid Sans;-inkscape-font-specification:Droid Sans" id="text3199-8" xml:space="preserve" xmlns:xml="http://www.w3.org/XML/1998/namespace" fill="#000000" font-size="0" fill-opacity="1">
     <text  x="176.523" y="-60.1836" id="tspan3201-2">col</text>
    </g>
   </g>
   <g transform="matrix(0.0038448,0.99999261,-0.99999261,0.0038448,0,0)">
    <g  stroke="none" style="font-style:normal;font-variant:normal;font-weight:normal;font-stretch:normal;line-height:125%;letter-spacing:0px;word-spacing:0px;font-family:Droid Sans;-inkscape-font-specification:Droid Sans" id="text3199-4" xml:space="preserve" xmlns:xml="http://www.w3.org/XML/1998/namespace" fill="#000000" font-size="0" fill-opacity="1">
     <text  x="176.687" y="-102.626" id="tspan3201-5">col</text>
    </g>
   </g>
   <g transform="matrix(0,1,-1,0,0,0)">
    <g  stroke="none" style="font-style:normal;font-variant:normal;font-weight:normal;font-stretch:normal;line-height:125%;letter-spacing:0px;word-spacing:0px;font-family:Droid Sans;-inkscape-font-specification:Droid Sans" id="text3233" xml:space="preserve" xmlns:xml="http://www.w3.org/XML/1998/namespace" fill="#000000" font-size="0" fill-opacity="1">
     <text  x="175.944" y="-40.3351" id="tspan3235">arr</text>
    </g>
   </g>
   <g transform="matrix(0,1,-1,0,0,0)">
    <g  stroke="none" style="font-style:normal;font-variant:normal;font-weight:normal;font-stretch:normal;line-height:125%;letter-spacing:0px;word-spacing:0px;font-family:Droid Sans;-inkscape-font-specification:Droid Sans" id="text3233-1" xml:space="preserve" xmlns:xml="http://www.w3.org/XML/1998/namespace" fill="#000000" font-size="0" fill-opacity="1">
     <text  x="175.944" y="-82.8282" id="tspan3235-1">arr</text>
    </g>
   </g>
   <g transform="matrix(0,1,-1,0,0,0)">
    <g  stroke="none" style="font-style:normal;font-variant:normal;font-weight:normal;font-stretch:normal;line-height:125%;letter-spacing:0px;word-spacing:0px;font-family:Droid Sans;-inkscape-font-specification:Droid Sans" id="text3233-5" xml:space="preserve" xmlns:xml="http://www.w3.org/XML/1998/namespace" fill="#000000" font-size="0" fill-opacity="1">
     <text  x="175.944" y="-125.445" id="tspan3235-2">arr</text>
    </g>
   </g>
   <g transform="matrix(0,1,-1,0,0,0)">
    <g  stroke="none" style="font-style:normal;font-variant:normal;font-weight:normal;font-stretch:normal;line-height:125%;letter-spacing:0px;word-spacing:0px;font-family:Droid Sans;-inkscape-font-specification:Droid Sans" id="text3233-7" xml:space="preserve" xmlns:xml="http://www.w3.org/XML/1998/namespace" fill="#000000" font-size="0" fill-opacity="1">
     <text  x="175.944" y="-146.796" id="tspan3235-6">arr</text>
    </g>
   </g>
  </g>
 </g>
 <g transform="matrix(1, 0, 0, 1, 0.325652, -628.95)">
  <g  id="layer1"/>
 </g>
 <rect  x="17.3529" y="193.127" width="7.04572" height="21.4803" fill="none"/>
 <rect  x="39.4295" y="191.963" width="6.576" height="24.0538" fill="none"/>
 <rect  x="60.5667" y="192.531" width="6.576" height="23.016" fill="none"/>
 <rect  x="82.1735" y="191.963" width="5.63657" height="23.1144" fill="none"/>
 <rect  x="103.78" y="192.433" width="5.78046" height="22.175" fill="none"/>
 <rect  x="124.918" y="193.372" width="5.31075" height="21.7053" fill="none"/>
 <rect  x="146.524" y="193.471" width="5.31075" height="20.6674" fill="none"/>
 <rect  x="85.3632" y="106.475" width="4" height="4" fill="none"/>
 <rect  x="85.3632" y="106.475" width="4" height="4" fill="none"/>
 <rect  x="85.3632" y="106.475" width="4" height="4" fill="none"/>
 <rect  x="85.3632" y="106.475" width="4" height="4" fill="none"/>
 <rect  x="85.3632" y="106.475" width="4" height="4" fill="none"/>
 <rect  x="85.3632" y="106.475" width="4" height="4" fill="none"/>
 <rect  x="85.3632" y="106.475" width="4" height="4" fill="none"/>
 <rect  x="85.3632" y="106.475" width="4" height="4" fill="none"/>
 <rect  x="85.3632" y="106.475" width="4" height="4" fill="none"/>
 <rect  x="85.3632" y="106.475" width="4" height="4" fill="none"/>
 <rect  x="40.2261" y="192.859" width="5.78804" id="connector26" height="20.2006" fill="none"/>
 <rect  x="61.5865" y="192.859" width="5.47392" id="connector27" height="20.2006" fill="none"/>
 <rect  x="82.3186" y="193.487" width="5.15979" id="connector28" height="18.9441" fill="none"/>
 <rect  x="104.307" y="191.602" width="4.21742" id="connector29" height="21.4571" fill="none"/>
 <rect  x="124.411" y="191.602" width="6.41629" id="connector30" height="21.143" fill="none"/>
 <rect  x="146.086" y="193.173" width="5.65422" id="connector31" height="18.9441" fill="none"/>
 <rect  x="18.5515" y="192.859" width="5.15979" id="connector25" height="20.8289" fill="none"/>
</g>
</g></g><g partID='63350'><line stroke-linecap='round' stroke='#404040' x1='122.369' y1='165.438' x2='122.369' y2='194.175' stroke-width='0.699998' /></g><g partID='63420'><line stroke-linecap='round' stroke='#404040' x1='122.369' y1='194.175' x2='136.8' y2='194.159' stroke-width='0.699998' /></g><g partID='62250'><line stroke-linecap='round' stroke='#404040' x1='108' y1='165.359' x2='122.369' y2='165.438' stroke-width='0.699998' /></g><g partID='63560'><line stroke-linecap='round' stroke='#404040' x1='50.5257' y1='42.9458' x2='158.29' y2='42.9458' stroke-width='0.699998' /></g><g partID='63490'><line stroke-linecap='round' stroke='#404040' x1='158.29' y1='42.9458' x2='158.4' y2='186.959' stroke-width='0.699998' /></g><g partID='62340'><line stroke-linecap='round' stroke='#404040' x1='50.4' y1='64.5593' x2='50.5257' y2='42.9458' stroke-width='0.699998' /></g><g partID='63220'><line stroke-linecap='round' stroke='#404040' x1='57.5995' y1='244.559' x2='57.6' y2='266.159' stroke-width='0.699998' /></g><g partID='63280'><line stroke-linecap='round' stroke='#404040' x1='158.4' y1='230.159' x2='158.4' y2='201.359' stroke-width='0.699998' /></g><g partID='72660'><line stroke-linecap='round' stroke='#404040' x1='316.702' y1='222.892' x2='316.702' y2='122.13' stroke-width='0.699998' /></g><g partID='72610'><line stroke-linecap='round' stroke='#404040' x1='316.702' y1='122.13' x2='108' y2='122.159' stroke-width='0.699998' /></g><g partID='72560'><line stroke-linecap='round' stroke='#404040' x1='410.286' y1='222.892' x2='316.702' y2='222.892' stroke-width='0.699998' /></g><g partID='72510'><line stroke-linecap='round' stroke='#404040' x1='410.011' y1='208.873' x2='410.286' y2='222.892' stroke-width='0.699998' /></g><g partID='72830'><line stroke-linecap='round' stroke='#404040' x1='432.095' y1='230.07' x2='302.347' y2='230.07' stroke-width='0.699998' /></g><g partID='72780'><line stroke-linecap='round' stroke='#404040' x1='432' y1='208.559' x2='432.095' y2='230.07' stroke-width='0.699998' /></g><g partID='72880'><line stroke-linecap='round' stroke='#404040' x1='302.347' y1='136.485' x2='108' y2='136.559' stroke-width='0.699998' /></g><g partID='72930'><line stroke-linecap='round' stroke='#404040' x1='302.347' y1='230.07' x2='302.347' y2='136.485' stroke-width='0.699998' /></g><g partID='73130'><line stroke-linecap='round' stroke='#404040' x1='323.051' y1='237.799' x2='323.879' y2='114.952' stroke-width='0.699998' /></g><g partID='73080'><line stroke-linecap='round' stroke='#404040' x1='453.628' y1='237.247' x2='323.051' y2='237.799' stroke-width='0.699998' /></g><g partID='73030'><line stroke-linecap='round' stroke='#404040' x1='323.879' y1='114.952' x2='107.999' y2='114.959' stroke-width='0.699998' /></g><g partID='72980'><line stroke-linecap='round' stroke='#404040' x1='453.203' y1='208.559' x2='453.628' y2='237.247' stroke-width='0.699998' /></g><g partID='73350'><line stroke-linecap='round' stroke='#404040' x1='280.814' y1='244.425' x2='280.814' y2='158.294' stroke-width='0.699998' /></g><g partID='73300'><line stroke-linecap='round' stroke='#404040' x1='475.16' y1='244.425' x2='280.814' y2='244.425' stroke-width='0.699998' /></g><g partID='73200'><line stroke-linecap='round' stroke='#404040' x1='473.778' y1='208.559' x2='475.16' y2='244.425' stroke-width='0.699998' /></g><g partID='73250'><line stroke-linecap='round' stroke='#404040' x1='280.814' y1='158.294' x2='108' y2='158.159' stroke-width='0.699998' /></g><g partID='73500'><line stroke-linecap='round' stroke='#404040' x1='309.524' y1='251.878' x2='309.524' y2='129.308' stroke-width='0.699998' /></g><g partID='73550'><line stroke-linecap='round' stroke='#404040' x1='496.693' y1='251.878' x2='309.524' y2='251.878' stroke-width='0.699998' /></g><g partID='73450'><line stroke-linecap='round' stroke='#404040' x1='309.524' y1='129.308' x2='108' y2='129.359' stroke-width='0.699998' /></g><g partID='73400'><line stroke-linecap='round' stroke='#404040' x1='495.296' y1='207.931' x2='496.693' y2='251.878' stroke-width='0.699998' /></g><g partID='73750'><line stroke-linecap='round' stroke='#404040' x1='287.991' y1='259.056' x2='287.991' y2='150.84' stroke-width='0.699998' /></g><g partID='73700'><line stroke-linecap='round' stroke='#404040' x1='518.502' y1='259.056' x2='287.991' y2='259.056' stroke-width='0.699998' /></g><g partID='73600'><line stroke-linecap='round' stroke='#404040' x1='516.499' y1='207.774' x2='518.502' y2='259.056' stroke-width='0.699998' /></g><g partID='73650'><line stroke-linecap='round' stroke='#404040' x1='287.991' y1='150.84' x2='108' y2='150.959' stroke-width='0.699998' /></g><g partID='73850'><line stroke-linecap='round' stroke='#404040' x1='295.169' y1='143.663' x2='108' y2='143.759' stroke-width='0.699998' /></g><g partID='73900'><line stroke-linecap='round' stroke='#404040' x1='295.169' y1='266.233' x2='295.169' y2='143.663' stroke-width='0.699998' /></g><g partID='73800'><line stroke-linecap='round' stroke='#404040' x1='537.793' y1='208.245' x2='540.035' y2='266.233' stroke-width='0.699998' /></g><g partID='73950'><line stroke-linecap='round' stroke='#404040' x1='540.035' y1='266.233' x2='295.169' y2='266.233' stroke-width='0.699998' /></g><g partID='60040' id='partLabel'><g transform='translate(108,58.9593)' ><g font-size='5' font-style='normal' font-weight='normal' fill='#000000' font-family="'DroidSans'" id='schematicLabel' fill-opacity='1' stroke='none' ><text x='0' y='3.75'>Part1</text></g></g></g><g partID='62220' id='partLabel'><g transform='translate(158.75,180.053)' ><g font-size='5' font-style='normal' font-weight='normal' fill='#000000' font-family="'DroidSans'" id='schematicLabel' fill-opacity='1' stroke='none' ><text x='0' y='3.75'>S1</text></g></g></g><g partID='72290' id='partLabel'><g transform='translate(559.606,0)' ><g font-size='5' font-style='normal' font-weight='normal' fill='#000000' font-family="'DroidSans'" id='schematicLabel' fill-opacity='1' stroke='none' ><text x='0' y='3.75'>kEYPAD MATRICIAL 1</text></g></g></g></svg>